#N canvas 672 323 598 587 10;
#X obj -455 531 dac~;
#X obj -497 150 metro 500;
#X obj -503 187 f;
#X obj -456 185 + 1;
#X obj -501 251 trigger f f f;
#X obj -333 404 osc~;
#X floatatom -339 306 5 0 0 0 - - -;
#X obj -315 350 /;
#X floatatom -284 300 5 0 0 0 - - -;
#X obj -298 188 metro 500;
#X obj -527 351 /;
#X obj -440 351 /;
#X obj -287 228 random 1000 2000;
#X obj -481 23 bng 15 250 50 0 empty empty empty 17 7 0 10 -262144
-1 -1;
#X obj -483 88 t b b b;
#X obj -224 193 / 100;
#X obj -421 407 osc~;
#X obj -524 403 osc~;
#X obj -403 117 random 1000 2000;
#X obj -416 154 / 1000;
#X floatatom -589 198 5 0 0 0 - - -;
#X floatatom -310 66 5 0 0 0 - - -;
#X obj -458 476 *~ 0.1;
#X floatatom -259 483 5 0 0 0 - - -;
#X obj -332 510 / 10;
#X floatatom -332 556 5 0 0 0 - - -;
#X connect 1 0 2 0;
#X connect 1 0 20 0;
#X connect 2 0 3 0;
#X connect 2 0 4 0;
#X connect 3 0 2 0;
#X connect 4 0 10 0;
#X connect 4 1 11 0;
#X connect 4 2 5 0;
#X connect 4 2 6 0;
#X connect 5 0 22 0;
#X connect 6 0 7 0;
#X connect 7 0 5 0;
#X connect 8 0 7 1;
#X connect 8 0 11 1;
#X connect 8 0 10 1;
#X connect 8 0 15 0;
#X connect 9 0 12 0;
#X connect 10 0 17 0;
#X connect 11 0 16 0;
#X connect 12 0 8 0;
#X connect 13 0 14 0;
#X connect 14 0 1 0;
#X connect 14 1 18 0;
#X connect 14 2 9 0;
#X connect 15 0 9 1;
#X connect 16 0 22 0;
#X connect 17 0 22 0;
#X connect 18 0 19 0;
#X connect 19 0 1 1;
#X connect 21 0 18 1;
#X connect 22 0 0 0;
#X connect 22 0 0 1;
#X connect 23 0 24 0;
#X connect 24 0 22 1;
#X connect 24 0 25 0;
