#N canvas 695 481 450 300 10;
#X floatatom 188 37 5 0 0 0 - - -;
#X obj 139 76 * 1;
#X obj 272 76 * 4;
#X obj 233 76 * 3;
#X obj 193 76 * 2;
#X obj 131 126 osc~;
#X obj 186 126 osc~;
#X obj 237 122 osc~;
#X obj 284 121 osc~;
#X obj 129 168 *~ 1;
#X obj 177 172 *~ 0.7;
#X obj 240 167 *~ 0.5;
#X obj 296 168 *~ 0.4;
#X obj 202 210 *~ 0.4;
#X obj 200 265 dac~;
#X floatatom 333 128 5 0 0 0 - - -;
#X floatatom 260 142 5 0 0 0 - - -;
#X floatatom 206 145 5 0 0 0 - - -;
#X floatatom 152 146 5 0 0 0 - - -;
#X obj 320 255 rev1~;
#X connect 0 0 1 0;
#X connect 0 0 4 0;
#X connect 0 0 3 0;
#X connect 0 0 2 0;
#X connect 1 0 5 0;
#X connect 2 0 8 0;
#X connect 3 0 7 0;
#X connect 4 0 6 0;
#X connect 5 0 9 0;
#X connect 6 0 10 0;
#X connect 7 0 11 0;
#X connect 8 0 12 0;
#X connect 9 0 13 0;
#X connect 10 0 13 0;
#X connect 11 0 13 0;
#X connect 12 0 13 0;
#X connect 13 0 14 0;
#X connect 13 0 14 1;
#X connect 15 0 12 1;
#X connect 16 0 11 1;
#X connect 17 0 10 1;
#X connect 18 0 9 1;
